<svg width="1291" height="520" viewBox="0 0 1291 520" fill="none" xmlns="http://www.w3.org/2000/svg">
<path d="M32.4409 52.192C46.5103 35.4845 65.663 23.8431 86.9722 19.0465L160.744 2.44097C179.595 -1.80216 199.271 -0.493174 217.394 6.20965L267.906 24.8922C288.173 32.3883 310.324 33.1177 331.04 26.971L400.932 6.23378C421.632 0.0919614 443.936 7.94171 456.227 25.6946C468.176 42.9552 489.641 50.9054 509.951 45.5935L609.573 19.5385C628.524 14.582 648.514 15.3006 667.06 21.6052L777.513 59.152C785.885 61.9979 794.598 63.7208 803.423 64.2757L933.721 72.4681C949.116 73.4361 964.526 70.8295 978.746 64.8523L1086.04 19.7527C1098.31 14.5959 1111.48 11.9397 1124.79 11.9397H1134.43C1162.87 11.9397 1189.97 24.051 1208.94 45.2427L1221.16 58.8929C1230.05 68.8239 1236.86 80.4318 1241.2 93.0345L1290.22 235.39C1291.4 238.817 1290.63 242.613 1288.21 245.314L1267.98 267.922C1267.09 268.924 1266.4 270.095 1265.97 271.367L1237.52 354.931C1236.83 356.955 1233.88 356.631 1233.64 354.505L1221.43 243.658C1221.23 241.884 1220.53 240.203 1219.4 238.817L1182.81 193.778C1178.55 188.536 1171.35 186.722 1165.12 189.32C1160.43 191.27 1157.03 195.421 1156.03 200.394L1115.47 402.755C1114.8 406.124 1109.95 406.034 1109.4 402.643L1093.26 303.258C1090.43 285.832 1065.28 286.055 1062.76 303.529C1062.55 304.979 1060.63 305.348 1059.9 304.08L1009.61 216.913C1001.05 202.081 978.931 204.578 973.895 220.944C973.385 222.6 973.097 224.317 973.039 226.05L968.048 374.425C967.971 376.699 964.764 377.101 964.129 374.917L934.569 273.326C927.835 250.183 912.97 230.252 892.708 217.199L878.66 208.148C874.913 205.735 869.962 206.449 867.051 209.824C855.996 222.637 848.805 238.326 846.316 255.066L821.208 423.897C821.158 424.233 820.933 424.517 820.618 424.643C814.656 427.028 808.086 422.969 807.552 416.57L793.826 252.318C793.696 250.766 793.115 249.287 792.155 248.061L758.271 204.812C731.785 171.005 678.084 181.856 666.801 223.293L665.639 227.56C665.374 228.533 664.286 229.019 663.385 228.569C654.105 223.929 642.935 229.236 640.67 239.36L579.719 511.798C577.425 522.056 562.887 522.282 560.275 512.101L537.696 424.122C530.943 397.807 513.773 375.372 490.136 361.978L455.263 342.217C453.249 341.076 451.748 339.207 451.067 336.995L419.055 232.955C413.231 214.028 389.267 208.239 375.446 222.422L358.588 239.719C353.811 244.62 345.597 243.158 342.805 236.909L342.615 236.484C340.268 231.231 333.76 229.351 328.973 232.542C324.856 235.287 319.311 234.325 316.359 230.355L276.652 176.956C272.23 171.009 262.792 173.833 262.363 181.232L247.127 443.94L229.817 205.922C227.64 175.987 195.005 158.541 168.904 173.36C155.804 180.797 147.861 194.84 148.235 209.899L151.627 346.44L125.914 174.716C124.49 165.2 118.306 157.07 109.517 153.154C90.5695 144.714 69.3066 158.951 69.8934 179.685L70.9591 217.342C71.1165 222.902 63.6007 224.778 61.1266 219.796L1.04378 98.813C-0.727323 95.2467 -0.213854 90.9695 2.35101 87.9237L32.4409 52.192Z" fill="#98C4E7"/>
<path d="M32.441 52.192C46.5104 35.4845 65.6631 23.8431 86.9723 19.0465L160.745 2.44097C179.595 -1.80216 199.271 -0.493174 217.394 6.20965L267.906 24.8922C288.173 32.3883 310.324 33.1177 331.04 26.971L400.932 6.23378C421.633 0.0919614 443.936 7.94171 456.227 25.6946C468.176 42.9552 489.641 50.9054 509.951 45.5935L609.573 19.5385C628.524 14.582 648.514 15.3006 667.06 21.6052L777.514 59.152C785.886 61.9979 794.598 63.7208 803.423 64.2757L933.722 72.4681C949.116 73.4361 964.526 70.8295 978.747 64.8523L1086.04 19.7527C1098.31 14.5959 1111.48 11.9397 1124.79 11.9397H1134.43C1162.87 11.9397 1189.97 24.051 1208.94 45.2427L1221.16 58.8929C1230.05 68.8239 1236.86 80.4318 1241.2 93.0345L1290.22 235.39C1291.4 238.817 1290.63 242.613 1288.21 245.314L1269.32 266.425C1267.77 268.167 1265.18 268.533 1263.2 267.293C1240.2 252.884 1209.83 260.401 1196.21 283.877L1195.66 284.82C1193.33 288.833 1187.25 287.668 1186.57 283.079L1177.84 224.371C1175.23 206.799 1154.97 198.197 1140.51 208.523C1134.03 213.155 1125.65 214.229 1118.21 211.385L1068.87 192.529C1057.47 188.173 1045.37 185.94 1033.17 185.94H1024.83C983.94 185.94 947.169 210.835 931.983 248.801L907.691 309.529C906.465 312.596 902.087 312.486 901.016 309.361L890.681 279.204C884.32 260.641 858.758 258.881 849.912 276.396C849.26 277.686 847.568 278.018 846.477 277.069L834.996 267.079C820.743 254.677 799.525 254.693 785.29 267.116L784.621 267.699C783.499 268.679 781.809 268.622 780.756 267.568C767.426 254.238 745.037 257.404 735.926 273.908L730.917 282.981C729.517 285.516 725.852 285.456 724.536 282.875L661.685 159.554C661.647 159.478 661.616 159.398 661.593 159.317C658.138 146.938 640.638 146.801 636.989 159.123L578.665 356.114C577.458 360.191 571.614 359.981 570.703 355.828L562.172 316.934C554.481 281.872 504.241 282.582 497.544 317.846C496.946 320.997 492.658 321.527 491.31 318.617L451.69 233.061C438 203.5 402.504 191.213 373.469 205.985C371.192 207.143 368.424 206.66 366.675 204.799L325.644 161.149C310.996 145.566 286.493 144.801 270.901 159.438L262.833 167.011C255.275 174.107 243.981 175.466 234.955 170.364L229.205 167.114C221.567 162.797 211.89 165.149 207.085 172.49L203.251 178.348C200.179 183.041 193.825 184.246 189.247 181.004C182.692 176.361 173.627 181.048 173.627 189.082V195.168C173.627 205.138 162.897 211.424 154.201 206.548L63.4711 155.679C57.2741 152.204 51.6099 147.855 46.653 142.765L4.44722 99.4291C0.860239 95.7461 0.65041 89.9433 3.96201 86.0108L32.441 52.192Z" fill="#D1E6F7"/>
<path d="M32.441 52.192C46.5104 35.4845 65.6631 23.8431 86.9723 19.0465L160.745 2.44097C179.595 -1.80216 199.271 -0.493174 217.394 6.20965L267.906 24.8922C288.173 32.3883 310.324 33.1177 331.04 26.971L400.932 6.23378C421.633 0.0919614 443.936 7.94171 456.227 25.6946C468.176 42.9552 489.641 50.9054 509.951 45.5935L609.573 19.5385C628.524 14.582 648.514 15.3006 667.06 21.6052L777.514 59.152C785.886 61.9979 794.598 63.7208 803.423 64.2757L933.722 72.4681C949.116 73.4361 964.526 70.8295 978.747 64.8523L1086.04 19.7527C1098.31 14.5959 1111.48 11.9397 1124.79 11.9397H1134.43C1162.87 11.9397 1189.97 24.051 1208.94 45.2427L1221.16 58.8929C1230.05 68.8239 1236.86 80.4318 1241.2 93.0345L1278.85 202.38C1282.26 212.269 1270.11 220.088 1262.52 212.896L1207.91 161.171C1184.49 138.995 1149.92 133.342 1120.67 146.905C1103.24 154.982 1083.47 156.411 1065.07 150.924L944.658 115.024C918.748 107.299 890.815 110.395 867.225 123.605L725.995 202.694C720.932 205.529 714.528 203.474 712.059 198.223L694.245 160.334C671.514 111.985 614.793 90.0436 565.443 110.509L459.879 154.284C435.683 164.318 408.515 164.458 384.216 154.672L302.267 121.669C284.859 114.658 265.829 112.687 247.354 115.982L106.327 141.131C73.6799 146.953 40.2699 136.211 17.1324 112.454L4.44722 99.4291C0.860239 95.7461 0.65041 89.9433 3.96201 86.0108L32.441 52.192Z" fill="white"/>
</svg>
