<svg width="2448" height="1113" viewBox="0 0 2448 1113" fill="none" xmlns="http://www.w3.org/2000/svg">
<circle cx="1347.1" cy="217.672" r="8.21402" fill="white"/>
<circle cx="1712.62" cy="427.129" r="8.21402" fill="white"/>
<circle cx="1363.53" cy="870.686" r="8.21402" fill="white"/>
<circle cx="1626.38" cy="846.044" r="8.21402" fill="white"/>
<circle cx="772.118" cy="316.24" r="8.21402" fill="white"/>
<circle cx="1466.2" cy="377.845" r="8.21402" fill="white"/>
<circle cx="1145.86" cy="353.203" r="8.21402" fill="white"/>
<circle cx="1540.13" cy="562.661" r="8.21402" fill="white"/>
<circle cx="1162.28" cy="993.897" r="8.21402" fill="white"/>
<circle cx="1433.35" cy="981.576" r="8.21402" fill="white"/>
<circle cx="583.195" cy="476.413" r="8.21402" fill="white"/>
<circle cx="1252.64" cy="538.018" r="8.21402" fill="white"/>
<circle cx="1733.16" cy="143.745" r="8.21402" fill="white"/>
<circle cx="1889.23" cy="266.956" r="8.21402" fill="white"/>
<circle cx="689.978" cy="82.1403" r="8.21402" fill="white"/>
<circle cx="69.819" cy="8.21402" r="8.21402" fill="white"/>
<circle cx="164.28" cy="365.524" r="8.21402" fill="white"/>
<circle cx="349.096" cy="488.734" r="8.21402" fill="white"/>
<circle cx="714.62" cy="661.229" r="8.21402" fill="white"/>
<circle cx="365.524" cy="1104.79" r="8.21402" fill="white"/>
<circle cx="620.158" cy="1092.46" r="8.21402" fill="white"/>
<circle cx="32.8561" cy="587.303" r="8.21402" fill="white"/>
<circle cx="443.557" cy="611.945" r="8.21402" fill="white"/>
<circle cx="398.38" cy="796.76" r="8.21402" fill="white"/>
<circle cx="850.152" cy="648.908" r="8.21402" fill="white"/>
<circle cx="1186.93" cy="45.1772" r="8.21402" fill="white"/>
<circle cx="1572.99" cy="735.155" r="8.21402" fill="white"/>
<circle cx="1281.39" cy="772.118" r="8.21402" fill="white"/>
<circle cx="1815.3" cy="673.55" r="8.21402" fill="white"/>
<circle cx="2000.11" cy="759.797" r="8.21402" fill="white"/>
<circle cx="751.583" cy="599.624" r="8.21402" fill="white"/>
<circle cx="86.2472" cy="328.561" r="8.21402" fill="white"/>
<circle cx="381.952" cy="550.34" r="8.21402" fill="white"/>
<circle cx="102.675" cy="956.934" r="8.21402" fill="white"/>
<circle cx="295.705" cy="944.612" r="8.21402" fill="white"/>
<circle cx="8.21402" cy="464.092" r="8.21402" fill="white"/>
<circle cx="180.709" cy="501.055" r="8.21402" fill="white"/>
<circle cx="205.351" cy="784.439" r="8.21402" fill="white"/>
<circle cx="468.199" cy="895.328" r="8.21402" fill="white"/>
<circle cx="492.841" cy="1055.5" r="8.21402" fill="white"/>
<circle cx="940.505" cy="969.255" r="8.21402" fill="white"/>
<circle cx="1388.17" cy="574.982" r="8.21402" fill="white"/>
<circle cx="2115.11" cy="932.292" r="8.21402" fill="white"/>
<circle cx="1946.72" cy="1018.54" r="8.21402" fill="white"/>
<circle cx="2180.82" cy="919.971" r="8.21402" fill="white"/>
<circle cx="2312.25" cy="1006.22" r="8.21402" fill="white"/>
<circle cx="1215.67" cy="907.649" r="8.21402" fill="white"/>
<circle cx="316.24" cy="747.476" r="8.21402" fill="white"/>
<circle cx="427.129" cy="1030.86" r="8.21402" fill="white"/>
<circle cx="1014.43" cy="1043.18" r="8.21402" fill="white"/>
<circle cx="1071.93" cy="1080.14" r="8.21402" fill="white"/>
<circle cx="1597.63" cy="1067.82" r="8.21402" fill="white"/>
<circle cx="2065.83" cy="883.007" r="8.21402" fill="white"/>
<circle cx="2267.07" cy="229.993" r="8.21402" fill="white"/>
<circle cx="2201.36" cy="402.487" r="8.21402" fill="white"/>
<circle cx="2336.89" cy="168.387" r="8.21402" fill="white"/>
<circle cx="2353.32" cy="279.277" r="8.21402" fill="white"/>
<circle cx="1774.23" cy="94.4613" r="8.21402" fill="white"/>
<circle cx="648.907" cy="20.5351" r="8.21402" fill="white"/>
<circle cx="993.897" cy="180.709" r="8.21402" fill="white"/>
<circle cx="669.443" cy="636.587" r="8.21402" fill="white"/>
<circle cx="919.971" cy="624.266" r="8.21402" fill="white"/>
<circle cx="119.103" cy="106.782" r="8.21402" fill="white"/>
<circle cx="735.155" cy="131.424" r="8.21402" fill="white"/>
<circle cx="887.114" cy="414.808" r="8.21402" fill="white"/>
<circle cx="1449.77" cy="513.376" r="8.21402" fill="white"/>
<circle cx="1515.49" cy="833.723" r="8.21402" fill="white"/>
<circle cx="1963.15" cy="698.192" r="8.21402" fill="white"/>
<circle cx="2221.89" cy="57.4982" r="8.21402" fill="white"/>
<circle cx="2406.71" cy="242.314" r="8.21402" fill="white"/>
<circle cx="2242.43" cy="710.513" r="8.21402" fill="white"/>
<circle cx="2382.07" cy="685.871" r="8.21402" fill="white"/>
<circle cx="1794.76" cy="156.066" r="8.21402" fill="white"/>
<circle cx="2291.71" cy="205.35" r="8.21402" fill="white"/>
<circle cx="1642.8" cy="254.635" r="8.21402" fill="white"/>
<circle cx="1310.14" cy="439.45" r="8.21402" fill="white"/>
<circle cx="1839.94" cy="193.029" r="8.21402" fill="white"/>
<circle cx="2098.68" cy="390.166" r="8.21402" fill="white"/>
<circle cx="1856.37" cy="821.402" r="8.21402" fill="white"/>
<circle cx="2041.18" cy="809.081" r="8.21402" fill="white"/>
<circle cx="1232.1" cy="291.598" r="8.21402" fill="white"/>
<circle cx="1913.87" cy="340.882" r="8.21402" fill="white"/>
<circle cx="2020.65" cy="303.919" r="8.21402" fill="white"/>
<circle cx="792.654" cy="119.103" r="8.21402" fill="white"/>
<circle cx="139.638" cy="32.8561" r="8.21402" fill="white"/>
<circle cx="225.885" cy="451.771" r="8.21402" fill="white"/>
<circle cx="529.805" cy="525.697" r="8.21402" fill="white"/>
<circle cx="566.768" cy="858.365" r="8.21402" fill="white"/>
<circle cx="956.934" cy="722.834" r="8.21402" fill="white"/>
<circle cx="1486.74" cy="69.8192" r="8.21402" fill="white"/>
<circle cx="1653.07" cy="260.795" r="2.05351" fill="white"/>
<circle cx="1328.62" cy="470.253" r="2.05351" fill="white"/>
<circle cx="1870.74" cy="260.795" r="2.05351" fill="white"/>
<circle cx="2051.45" cy="334.721" r="2.05351" fill="white"/>
<circle cx="815.242" cy="125.264" r="2.05351" fill="white"/>
<circle cx="154.013" cy="39.0166" r="2.05351" fill="white"/>
<circle cx="236.153" cy="470.253" r="2.05351" fill="white"/>
<circle cx="552.393" cy="556.5" r="2.05351" fill="white"/>
<circle cx="593.463" cy="901.489" r="2.05351" fill="white"/>
<circle cx="979.522" cy="753.637" r="2.05351" fill="white"/>
<circle cx="1501.11" cy="75.9798" r="2.05351" fill="white"/>
<circle cx="1685.93" cy="334.721" r="2.05351" fill="white"/>
<circle cx="1607.9" cy="556.5" r="2.05351" fill="white"/>
<circle cx="1928.24" cy="310.079" r="2.05351" fill="white"/>
<circle cx="2125.38" cy="470.253" r="2.05351" fill="white"/>
<circle cx="909.703" cy="125.264" r="2.05351" fill="white"/>
<circle cx="190.976" cy="39.0166" r="2.05351" fill="white"/>
<circle cx="256.688" cy="556.5" r="2.05351" fill="white"/>
<circle cx="511.323" cy="162.227" r="2.05351" fill="white"/>
<circle cx="240.26" cy="223.832" r="2.05351" fill="white"/>
<circle cx="802.921" cy="211.511" r="2.05351" fill="white"/>
<circle cx="1201.3" cy="88.3008" r="2.05351" fill="white"/>
<circle cx="1985.74" cy="63.6587" r="2.05351" fill="white"/>
<circle cx="1037.02" cy="556.5" r="2.05351" fill="white"/>
<circle cx="51.3377" cy="556.5" r="2.05351" fill="white"/>
<circle cx="605.784" cy="581.142" r="2.05351" fill="white"/>
<circle cx="630.427" cy="901.489" r="2.05351" fill="white"/>
<circle cx="1086.3" cy="765.958" r="2.05351" fill="white"/>
<circle cx="1661.29" cy="125.264" r="2.05351" fill="white"/>
<circle cx="1267.01" cy="260.795" r="2.05351" fill="white"/>
<circle cx="1135.59" cy="39.0166" r="2.05351" fill="white"/>
<circle cx="1903.6" cy="396.327" r="2.05351" fill="white"/>
<circle cx="2252.7" cy="519.537" r="2.05351" fill="white"/>
<circle cx="2367.69" cy="334.721" r="2.05351" fill="white"/>
<circle cx="1989.85" cy="2.05351" r="2.05351" fill="white"/>
<circle cx="2133.59" cy="605.784" r="2.05351" fill="white"/>
<circle cx="807.028" cy="778.279" r="2.05351" fill="white"/>
<circle cx="453.825" cy="765.958" r="2.05351" fill="white"/>
<circle cx="1004.16" cy="494.895" r="2.05351" fill="white"/>
<circle cx="1332.73" cy="162.227" r="2.05351" fill="white"/>
<circle cx="1497.01" cy="310.079" r="2.05351" fill="white"/>
<circle cx="1665.39" cy="778.279" r="2.05351" fill="white"/>
<circle cx="1805.03" cy="667.389" r="2.05351" fill="white"/>
<circle cx="1755.75" cy="470.253" r="2.05351" fill="white"/>
<circle cx="1677.71" cy="581.142" r="2.05351" fill="white"/>
<circle cx="2080.2" cy="470.253" r="2.05351" fill="white"/>
<circle cx="2158.23" cy="556.5" r="2.05351" fill="white"/>
<circle cx="827.563" cy="741.315" r="2.05351" fill="white"/>
<circle cx="482.574" cy="728.994" r="2.05351" fill="white"/>
<circle cx="1041.13" cy="433.29" r="2.05351" fill="white"/>
<circle cx="1373.8" cy="88.3008" r="2.05351" fill="white"/>
<circle cx="1525.75" cy="260.795" r="2.05351" fill="white"/>
<circle cx="1690.03" cy="741.315" r="2.05351" fill="white"/>
<circle cx="1032.91" cy="199.19" r="2.05351" fill="white"/>
<circle cx="634.533" cy="334.721" r="2.05351" fill="white"/>
<circle cx="548.286" cy="88.3008" r="2.05351" fill="white"/>
<circle cx="1295.76" cy="470.253" r="2.05351" fill="white"/>
<circle cx="1784.5" cy="581.142" r="2.05351" fill="white"/>
<circle cx="1973.42" cy="433.29" r="2.05351" fill="white"/>
<circle cx="1423.08" cy="51.3377" r="2.05351" fill="white"/>
<circle cx="1616.11" cy="667.389" r="2.05351" fill="white"/>
<circle cx="1172.55" cy="741.315" r="2.05351" fill="white"/>
<circle cx="248.474" cy="75.9798" r="2.05351" fill="white"/>
<circle cx="269.009" cy="581.142" r="2.05351" fill="white"/>
<circle cx="47.2308" cy="728.994" r="2.05351" fill="white"/>
<circle cx="43.1238" cy="470.253" r="2.05351" fill="white"/>
<circle cx="519.537" cy="802.921" r="2.05351" fill="white"/>
<circle cx="1028.81" cy="913.81" r="2.05351" fill="white"/>
<circle cx="1205.41" cy="765.958" r="2.05351" fill="white"/>
<circle cx="659.176" cy="420.969" r="2.05351" fill="white"/>
<circle cx="864.526" cy="1037.02" r="2.05351" fill="white"/>
<circle cx="412.755" cy="1098.63" r="2.05351" fill="white"/>
<circle cx="544.179" cy="199.19" r="2.05351" fill="white"/>
<circle cx="260.795" cy="260.795" r="2.05351" fill="white"/>
<circle cx="819.348" cy="260.795" r="2.05351" fill="white"/>
<circle cx="1242.37" cy="125.264" r="2.05351" fill="white"/>
<circle cx="897.382" cy="260.795" r="2.05351" fill="white"/>
<circle cx="782.386" cy="39.0166" r="2.05351" fill="white"/>
<circle cx="1529.86" cy="396.327" r="2.05351" fill="white"/>
<circle cx="1977.53" cy="519.537" r="2.05351" fill="white"/>
<circle cx="2137.7" cy="334.721" r="2.05351" fill="white"/>
<circle cx="1657.18" cy="2.05351" r="2.05351" fill="white"/>
<circle cx="1829.67" cy="605.784" r="2.05351" fill="white"/>
<circle cx="1402.54" cy="667.389" r="2.05351" fill="white"/>
<circle cx="2010.38" cy="88.3008" r="2.05351" fill="white"/>
<circle cx="1057.56" cy="581.142" r="2.05351" fill="white"/>
<circle cx="55.4446" cy="581.142" r="2.05351" fill="white"/>
<circle cx="679.711" cy="605.784" r="2.05351" fill="white"/>
<circle cx="704.352" cy="913.81" r="2.05351" fill="white"/>
<circle cx="1110.95" cy="790.6" r="2.05351" fill="white"/>
<circle cx="1698.25" cy="125.264" r="2.05351" fill="white"/>
<circle cx="1878.96" cy="556.5" r="2.05351" fill="white"/>
<circle cx="1747.53" cy="605.784" r="2.05351" fill="white"/>
<circle cx="2150.02" cy="531.858" r="2.05351" fill="white"/>
<circle cx="811.135" cy="728.994" r="2.05351" fill="white"/>
<circle cx="478.467" cy="716.673" r="2.05351" fill="white"/>
<circle cx="1024.7" cy="408.648" r="2.05351" fill="white"/>
<circle cx="1336.83" cy="75.9798" r="2.05351" fill="white"/>
<circle cx="1505.22" cy="248.474" r="2.05351" fill="white"/>
<circle cx="1673.61" cy="741.315" r="2.05351" fill="white"/>
<circle cx="1866.64" cy="642.747" r="2.05351" fill="white"/>
<circle cx="1759.85" cy="408.648" r="2.05351" fill="white"/>
<circle cx="2326.62" cy="753.637" r="2.05351" fill="white"/>
<circle cx="2429.3" cy="889.168" r="2.05351" fill="white"/>
<circle cx="2441.62" cy="741.315" r="2.05351" fill="white"/>
<circle cx="2371.8" cy="334.721" r="2.05351" fill="white"/>
<circle cx="2416.98" cy="963.094" r="2.05351" fill="white"/>
<circle cx="2232.16" cy="1049.34" r="2.05351" fill="white"/>
<circle cx="2166.45" cy="581.142" r="2.05351" fill="white"/>
<circle cx="868.633" cy="753.637" r="2.05351" fill="white"/>
<circle cx="515.43" cy="753.637" r="2.05351" fill="white"/>
<circle cx="1061.66" cy="470.253" r="2.05351" fill="white"/>
<circle cx="1406.65" cy="125.264" r="2.05351" fill="white"/>
<circle cx="1558.61" cy="273.116" r="2.05351" fill="white"/>
<circle cx="1722.89" cy="765.958" r="2.05351" fill="white"/>
<circle cx="1102.73" cy="260.795" r="2.05351" fill="white"/>
<circle cx="264.902" cy="75.9798" r="2.05351" fill="white"/>
<circle cx="281.33" cy="605.784" r="2.05351" fill="white"/>
<circle cx="556.5" cy="236.153" r="2.05351" fill="white"/>
<circle cx="215.618" cy="371.684" r="2.05351" fill="white"/>
<circle cx="149.906" cy="125.264" r="2.05351" fill="white"/>
<circle cx="860.419" cy="494.895" r="2.05351" fill="white"/>
<circle cx="1320.4" cy="605.784" r="2.05351" fill="white"/>
<circle cx="1562.72" cy="470.253" r="2.05351" fill="white"/>
<circle cx="967.201" cy="75.9798" r="2.05351" fill="white"/>
<circle cx="1119.16" cy="716.673" r="2.05351" fill="white"/>
<circle cx="724.888" cy="765.958" r="2.05351" fill="white"/>
<circle cx="273.116" cy="297.758" r="2.05351" fill="white"/>
<circle cx="831.67" cy="273.116" r="2.05351" fill="white"/>
<circle cx="1271.12" cy="162.227" r="2.05351" fill="white"/>
<circle cx="2030.92" cy="125.264" r="2.05351" fill="white"/>
<circle cx="1694.14" cy="260.795" r="2.05351" fill="white"/>
<circle cx="1612" cy="39.0166" r="2.05351" fill="white"/>
<circle cx="2191.09" cy="396.327" r="2.05351" fill="white"/>
<circle cx="2421.08" cy="519.537" r="2.05351" fill="white"/>
<circle cx="2433.4" cy="334.721" r="2.05351" fill="white"/>
<circle cx="2301.98" cy="2.05351" r="2.05351" fill="white"/>
<circle cx="2392.33" cy="605.784" r="2.05351" fill="white"/>
<circle cx="2145.91" cy="667.389" r="2.05351" fill="white"/>
<circle cx="1090.41" cy="605.784" r="2.05351" fill="white"/>
<circle cx="59.5516" cy="605.784" r="2.05351" fill="white"/>
<circle cx="761.85" cy="605.784" r="2.05351" fill="white"/>
<circle cx="823.456" cy="913.81" r="2.05351" fill="white"/>
<circle cx="1131.48" cy="901.489" r="2.05351" fill="white"/>
<circle cx="1763.96" cy="199.19" r="2.05351" fill="white"/>
<circle cx="1981.63" cy="581.142" r="2.05351" fill="white"/>
<circle cx="1874.85" cy="605.784" r="2.05351" fill="white"/>
<circle cx="2162.34" cy="556.5" r="2.05351" fill="white"/>
<circle cx="835.777" cy="741.315" r="2.05351" fill="white"/>
<circle cx="507.216" cy="741.315" r="2.05351" fill="white"/>
<circle cx="1049.34" cy="445.611" r="2.05351" fill="white"/>
<circle cx="1398.44" cy="112.943" r="2.05351" fill="white"/>
<circle cx="1550.4" cy="260.795" r="2.05351" fill="white"/>
<circle cx="1702.36" cy="753.637" r="2.05351" fill="white"/>
<circle cx="2211.63" cy="605.784" r="2.05351" fill="white"/>
<circle cx="1123.27" cy="334.721" r="2.05351" fill="white"/>
<circle cx="277.223" cy="125.264" r="2.05351" fill="white"/>
<circle cx="330.615" cy="630.426" r="2.05351" fill="white"/>
<circle cx="609.891" cy="260.795" r="2.05351" fill="white"/>
<circle cx="326.508" cy="322.4" r="2.05351" fill="white"/>
<circle cx="901.489" cy="310.079" r="2.05351" fill="white"/>
<circle cx="1324.51" cy="199.19" r="2.05351" fill="white"/>
<circle cx="2076.09" cy="137.585" r="2.05351" fill="white"/>
<circle cx="1115.05" cy="630.426" r="2.05351" fill="white"/>
<circle cx="129.371" cy="642.747" r="2.05351" fill="white"/>
<circle cx="22.5887" cy="765.958" r="2.05351" fill="white"/>
<circle cx="18.4817" cy="556.5" r="2.05351" fill="white"/>
<circle cx="334.721" cy="901.489" r="2.05351" fill="white"/>
<circle cx="839.884" cy="1012.38" r="2.05351" fill="white"/>
<circle cx="1053.45" cy="839.884" r="2.05351" fill="white"/>
<circle cx="457.932" cy="482.574" r="2.05351" fill="white"/>
<circle cx="638.64" cy="1086.3" r="2.05351" fill="white"/>
<circle cx="252.581" cy="1110.95" r="2.05351" fill="white"/>
<circle cx="905.596" cy="642.747" r="2.05351" fill="white"/>
<circle cx="930.238" cy="926.131" r="2.05351" fill="white"/>
<circle cx="1299.87" cy="901.489" r="2.05351" fill="white"/>
<circle cx="1924.13" cy="260.795" r="2.05351" fill="white"/>
<circle cx="2088.41" cy="605.784" r="2.05351" fill="white"/>
<circle cx="1932.35" cy="642.747" r="2.05351" fill="white"/>
<circle cx="2170.56" cy="581.142" r="2.05351" fill="white"/>
<circle cx="872.74" cy="765.958" r="2.05351" fill="white"/>
<circle cx="540.072" cy="765.958" r="2.05351" fill="white"/>
<circle cx="1082.2" cy="470.253" r="2.05351" fill="white"/>
<circle cx="1418.97" cy="125.264" r="2.05351" fill="white"/>
<circle cx="1583.25" cy="310.079" r="2.05351" fill="white"/>
<circle cx="1743.43" cy="765.958" r="2.05351" fill="white"/>
<circle cx="1899.49" cy="728.994" r="2.05351" fill="white"/>
<circle cx="1825.57" cy="470.253" r="2.05351" fill="white"/>
<circle cx="2363.58" cy="815.242" r="2.05351" fill="white"/>
<circle cx="2437.51" cy="926.131" r="2.05351" fill="white"/>
<circle cx="2445.73" cy="765.958" r="2.05351" fill="white"/>
<circle cx="2396.44" cy="433.29" r="2.05351" fill="white"/>
<circle cx="2425.19" cy="1037.02" r="2.05351" fill="white"/>
<circle cx="2277.34" cy="1110.95" r="2.05351" fill="white"/>
<circle cx="2281.44" cy="605.784" r="2.05351" fill="white"/>
<circle cx="1176.66" cy="470.253" r="2.05351" fill="white"/>
<circle cx="285.437" cy="125.264" r="2.05351" fill="white"/>
<circle cx="416.862" cy="642.747" r="2.05351" fill="white"/>
<circle cx="700.245" cy="260.795" r="2.05351" fill="white"/>
<circle cx="305.972" cy="433.29" r="2.05351" fill="white"/>
<circle cx="244.367" cy="162.227" r="2.05351" fill="white"/>
<circle cx="975.415" cy="556.5" r="2.05351" fill="white"/>
<circle cx="1476.47" cy="642.747" r="2.05351" fill="white"/>
<circle cx="1681.82" cy="494.895" r="2.05351" fill="white"/>
<circle cx="1094.52" cy="88.3008" r="2.05351" fill="white"/>
<circle cx="1291.66" cy="741.315" r="2.05351" fill="white"/>
<circle cx="876.846" cy="790.6" r="2.05351" fill="white"/>
<circle cx="408.648" cy="334.721" r="2.05351" fill="white"/>
<circle cx="971.308" cy="322.4" r="2.05351" fill="white"/>
<circle cx="1410.76" cy="199.19" r="2.05351" fill="white"/>
<circle cx="2129.49" cy="162.227" r="2.05351" fill="white"/>
<circle cx="1197.19" cy="642.747" r="2.05351" fill="white"/>
<circle cx="195.083" cy="642.747" r="2.05351" fill="white"/>
<circle cx="983.63" cy="741.315" r="2.05351" fill="white"/>
<circle cx="597.57" cy="876.847" r="2.05351" fill="white"/>
<circle cx="503.109" cy="605.784" r="2.05351" fill="white"/>
<circle cx="1262.91" cy="963.094" r="2.05351" fill="white"/>
<circle cx="1751.64" cy="1086.3" r="2.05351" fill="white"/>
<circle cx="1936.46" cy="913.81" r="2.05351" fill="white"/>
<circle cx="1377.9" cy="581.142" r="2.05351" fill="white"/>
<circle cx="1587.36" cy="1110.95" r="2.05351" fill="white"/>
<circle cx="1127.37" cy="1110.95" r="2.05351" fill="white"/>
<circle cx="1045.23" cy="963.094" r="2.05351" fill="white"/>
<circle cx="1554.5" cy="913.81" r="2.05351" fill="white"/>
<circle cx="2055.56" cy="310.079" r="2.05351" fill="white"/>
<circle cx="2154.13" cy="605.784" r="2.05351" fill="white"/>
<circle cx="2084.31" cy="741.315" r="2.05351" fill="white"/>
<circle cx="2256.8" cy="605.784" r="2.05351" fill="white"/>
<circle cx="2322.51" cy="642.747" r="2.05351" fill="white"/>
<circle cx="1414.86" cy="544.179" r="2.05351" fill="white"/>
<circle cx="338.828" cy="199.19" r="2.05351" fill="white"/>
<circle cx="601.678" cy="741.315" r="2.05351" fill="white"/>
<circle cx="1098.63" cy="765.958" r="2.05351" fill="white"/>
<circle cx="1106.84" cy="1012.38" r="2.05351" fill="white"/>
<circle cx="1669.5" cy="913.81" r="2.05351" fill="white"/>
<circle cx="2141.81" cy="470.253" r="2.05351" fill="white"/>
</svg>
